<?xml version="1.0" encoding="UTF-8"?><svg id="Layer_1" xmlns="http://www.w3.org/2000/svg" viewBox="0 0 487.45 67.34"><g><path d="m50.7,6.31l-.56.53c-.94.89-2.31,1.14-3.5.64l-3.61-1.5c-1.19-.49-1.98-1.64-2.02-2.93l-.02-.77c-.04-1.27-1.07-2.27-2.34-2.27h-9.95c-1.27,0-2.3,1.01-2.34,2.27l-.02.77c-.04,1.29-.83,2.44-2.02,2.93l-3.61,1.5c-1.19.49-2.56.24-3.5-.64l-.56-.53c-.92-.87-2.37-.85-3.26.04l-7.04,7.04c-.9.9-.91,2.34-.04,3.26l.53.56c.89.94,1.14,2.31.64,3.5l-1.5,3.61c-.49,1.19-1.64,1.98-2.93,2.02l-.77.02c-1.27.04-2.27,1.07-2.27,2.34v9.95c0,1.27,1.01,2.3,2.27,2.34l.77.02c1.29.04,2.44.83,2.93,2.02l1.5,3.61c.49,1.19.24,2.56-.64,3.5l-.53.56c-.87.92-.85,2.37.04,3.26l7.04,7.04c.9.9,2.34.91,3.26.04l.56-.53c.94-.89,2.31-1.14,3.5-.64l3.61,1.5c1.19.49,1.98,1.64,2.02,2.93l.02.77c.04,1.27,1.07,2.27,2.34,2.27h9.95c1.27,0,2.3-1.01,2.34-2.27l.02-.77c.04-1.29.83-2.44,2.02-2.93l3.61-1.5c1.19-.49,2.56-.24,3.5.64l.56.53c.92.87,2.37.85,3.26-.04l2.36-2.36-12.84-12.84c-1.59-1.59-5.46-5.46-10.36-.56-1.53,1.53-2.42,3.45-3.88,4.91-3.51,3.51-7.62,1.78-9.21-1.54-.97-2.02-.59-2.16-1.72-3.9-1.2-1.85-3.19-3.06-3.76-5.43-.54-2.26.59-3,.64-4.17.05-1.09-1.11-2.45-.85-4.17.21-1.36,1.12-2.09,1.39-2.73.24-.58.21-1.23.39-2.17.58-2.96,3.46-4.39,5.96-2.78,1.67,1.08,5.2,5.12,5.74,4.58.54-.54-3.5-4.08-4.58-5.74-1.61-2.5-.18-5.38,2.78-5.96.94-.18,1.59-.15,2.17-.39.64-.27,1.37-1.18,2.73-1.39,1.72-.27,3.08.9,4.17.85,1.17-.06,1.9-1.19,4.17-.64,2.37.57,3.58,2.56,5.43,3.76,1.73,1.12,1.87.75,3.9,1.72,3.33,1.59,5.05,5.7,1.54,9.21-1.46,1.46-3.38,2.35-4.91,3.88-4.9,4.9-1.04,8.76.56,10.36l12.84,12.84,2.36-2.36c.9-.9.91-2.34.04-3.26l-.53-.56c-.89-.94-1.14-2.31-.64-3.5l1.5-3.61c.49-1.19,1.64-1.98,2.93-2.02l.77-.02c1.27-.04,2.27-1.07,2.27-2.34v-9.95c0-1.27-1.01-2.3-2.27-2.34l-.77-.02c-1.29-.04-2.44-.83-2.93-2.02l-1.5-3.61c-.49-1.19-.24-2.56.64-3.5l.53-.56c.87-.92.85-2.37-.04-3.26l-7.04-7.04c-.88-.9-2.32-.93-3.24-.06Z"/><g><path d="m86.63,34.03c0-7.71,5.84-12.8,13.28-12.8,4.59,0,7.98,2.19,10.08,4.91l-3.93,2.41c-1.34-1.79-3.52-3.03-6.15-3.03-4.81,0-8.33,3.57-8.33,8.51s3.52,8.51,8.33,8.51c2.54,0,4.46-1.07,5.57-2.1v-3.52h-6.61v-4.02h11.46v9.41c-2.58,2.72-6.15,4.5-10.43,4.5-7.45,0-13.28-5.12-13.28-12.78Z"/><rect x="115.57" y="21.76" width="4.9" height="24.53"/><polygon points="144.15 46.29 131.4 29.3 131.4 46.29 126.54 46.29 126.54 21.76 131.76 21.76 144.24 38.26 144.24 21.76 149.1 21.76 149.1 46.29 144.15 46.29"/><polygon points="170.54 46.29 162.08 36.17 160.07 38.44 160.07 46.29 155.16 46.29 155.16 21.76 160.07 21.76 160.07 32.96 169.74 21.76 175.72 21.76 165.24 33.31 176.48 46.29 170.54 46.29"/><path d="m176.52,34.03c0-7.71,5.84-12.8,13.29-12.8,4.59,0,7.98,2.19,10.08,4.91l-3.93,2.41c-1.34-1.79-3.52-3.03-6.15-3.03-4.81,0-8.34,3.57-8.34,8.51s3.52,8.51,8.34,8.51c2.54,0,4.46-1.07,5.57-2.1v-3.52h-6.61v-4.02h11.46v9.41c-2.58,2.72-6.15,4.5-10.43,4.5-7.45,0-13.29-5.12-13.29-12.78Z"/><path d="m225.08,34.03c0-4.86-3.12-8.51-7.98-8.51s-7.98,3.66-7.98,8.51,3.12,8.51,7.98,8.51,7.98-3.7,7.98-8.51Zm-20.91,0c0-7.31,5.22-12.8,12.93-12.8s12.97,5.48,12.97,12.8-5.26,12.79-12.97,12.79-12.93-5.48-12.93-12.79Z"/></g></g><g><path d="m246.26,46.15v-25h11.02c4.5,0,7.4,2.44,7.4,6.37,0,3.15-2.29,5.28-4.71,5.73,2.86.41,5.23,3.19,5.23,6.15,0,4.16-2.9,6.75-7.68,6.75h-11.26Zm2.29-13.79h8.45c3.46,0,5.27-2.02,5.27-4.61s-1.81-4.65-5.27-4.65h-8.45v9.26Zm0,11.84h8.61c3.54,0,5.63-1.91,5.63-4.95,0-2.55-1.89-4.95-5.63-4.95h-8.61v9.89Z"/><path d="m270.96,46.15v-25h2.29v25h-2.29Z"/><path d="m291.95,20.74c7.84,0,13.03,5.62,13.03,12.93s-5.19,12.93-13.03,12.93-13.03-5.62-13.03-12.93,5.15-12.93,13.03-12.93Zm0,1.95c-6.52,0-10.62,4.61-10.62,10.98s4.1,10.98,10.62,10.98,10.62-4.68,10.62-10.98-4.18-10.98-10.62-10.98Z"/><path d="m310.34,41.02c1.73,1.87,4.54,3.64,8.37,3.64,5.51,0,7.08-2.85,7.08-4.98,0-3.52-3.58-4.5-7.36-5.43-4.22-1.09-8.73-2.21-8.73-6.82,0-4.09,3.94-6.67,8.81-6.67,4.02,0,7,1.31,9.09,3.52l-1.53,1.57c-1.93-2.17-4.67-3.15-7.68-3.15-3.58,0-6.27,1.91-6.27,4.61,0,2.96,3.34,3.82,7,4.72,4.34,1.16,9.09,2.44,9.09,7.5,0,3.22-2.29,7.08-9.53,7.08-4.42,0-7.76-1.65-9.81-3.97l1.49-1.61Z"/><path d="m333.86,46.15v-25h17.01v1.95h-14.72v9.26h14.44v1.95h-14.44v9.89h14.72v1.95h-17.01Z"/><path d="m355.38,33.67c0-7.68,5.99-12.93,13.51-12.93,4.34,0,7.56,1.76,9.85,4.42l-1.93,1.16c-1.69-2.17-4.63-3.64-7.92-3.64-6.23,0-11.1,4.46-11.1,10.98s4.87,10.98,11.1,10.98c3.3,0,6.23-1.46,7.92-3.64l1.93,1.12c-2.37,2.74-5.51,4.46-9.85,4.46-7.52,0-13.51-5.25-13.51-12.93Z"/><path d="m383.41,21.16h2.33v15.36c0,5.06,2.86,8.13,8.12,8.13s8.12-3.07,8.12-8.13v-15.36h2.33v15.4c0,6.18-3.54,10.04-10.46,10.04s-10.46-3.9-10.46-10.04v-15.4Z"/><path d="m425.9,46.15l-7.52-10.34h-5.91v10.34h-2.29v-25h10.02c4.63,0,8.17,2.74,8.17,7.31s-3.46,7.05-7.44,7.2l7.76,10.49h-2.78Zm-5.91-23.05h-7.52v10.76h7.52c3.54,0,5.95-2.25,5.95-5.4s-2.41-5.36-5.95-5.36Z"/><path d="m434.88,46.15v-25h2.29v25h-2.29Z"/><path d="m450.69,46.15v-23.05h-8.77v-1.95h19.87v1.95h-8.77v23.05h-2.33Z"/><path d="m474.46,46.15v-10.68l-10.66-14.32h2.78l9.05,12.29,9.05-12.29h2.78l-10.66,14.32v10.68h-2.33Z"/></g></svg>
